/* XPM */
static char *splus_letters_large[] = {
/* columns rows colors chars-per-pixel */
"70 58 2 1",
"  c #008080",
". c gray100",
/* pixels */
"......................................................................",
"......................................................................",
"......................................................................",
"......................................................................",
"......................................................................",
"......................................................................",
"......................................................................",
"......................................................................",
".......................        ......... .............................",
"....................              ...... .............................",
"..................      .......     ...  .............................",
".................     ...........        ...........    ..............",
"................     .............       ...........    ..............",
"...............      ...............     ...........    ..............",
"...............     .................    ...........    ..............",
"..............      .................    ...........    ..............",
"..............      ..................   ...........    ..............",
".............       ...................  .....                ........",
".............        ..................  .....                ........",
".............         .................  .....                ........",
".............          ................. .....                ........",
".............           ................ ...........    ..............",
".............             ..........................    ..............",
".............               ........................    ..............",
"..............                ......................    ..............",
"..............                  ....................    ..............",
"...............                   ..................    ..............",
"................                    ..................................",
"................                     .................................",
".................                      ...............................",
"...................                     ..............................",
"....................                     .............................",
"......................                    ............................",
"........................                  ............................",
"..........................                 ...........................",
"............................               ...........................",
"..............................              ..........................",
"............. ..................            ..........................",
"............. ...................           ..........................",
".............  ...................          ..........................",
".............  ....................         ..........................",
".............  .....................        ..........................",
".............   .....................       ..........................",
".............   .....................      ...........................",
".............    ....................      ...........................",
".............     ...................      ...........................",
".............      ..................     ............................",
".............       ................     .............................",
".............        ..............     ..............................",
".............          ...........     ...............................",
".............   ...      .......      ................................",
".............  .......              ..................................",
"............. ...........        .....................................",
"......................................................................",
"......................................................................",
"......................................................................",
"......................................................................",
"......................................................................"
};
