/* XPM */
static char *dummy[]={
"24 24 5 1",
"c c #008080",
"b c #3f9f9f",
"# c #7fbfbf",
"a c #bfdfdf",
". c None s backgroundToolBarColor",
".....####....a..........",
"..abcb###cba.b..........",
".acca.....bccc.....cc...",
".ccb.......acc.....cc...",
"#cc#........bc.....cc...",
"cccb.........c..cccccccc",
"ccccb........b..cccccccc",
"cccccba......a.....cc...",
"bccccccba..........cc...",
"accccccccba........cc...",
".#cccccccccb............",
"..#cccccccccca..........",
"...abccccccccca.........",
".....abcccccccb.........",
".......abcccccca........",
"#........accccc#........",
"c.........acccc#........",
"ca.........accc#........",
"cb..........ccc.........",
"ccb.........ccb.........",
"cccb.......bcb..........",
"cb#cc#...abcb...........",
"b...a#cccc#a............",
"........................"};
