/* XPM */
static char *switch_ess[]={
"24 24 14 1",
". c None s backgroundToolBarColor",
"a c #000000",
"e c #131313",
"# c #1532ed",
"d c #313131",
"l c #434343",
"k c #535353",
"i c #707070",
"b c #878787",
"j c #949494",
"g c #a0a0a0",
"f c #bfbfbf",
"c c #c3c3c3",
"h c #e8e8e8",
"........................",
"........................",
"........................",
"........................",
"..###...................",
"..###...................",
"..###...................",
"..###.aaaab.cdedc.cdedc.",
"..###.af....ag....ag....",
"..###.af....bah...bah...",
"..###.aaad...fai...fai..",
"..###.af.......ga....ga.",
"..###.af....jhhkl.jhhkl.",
"..###.aaaal.keekh.keek..",
"..###...................",
"..###...................",
"..###...................",
"..###...........#.......",
"..###...........##......",
"..#################.....",
"..##################....",
"...################.....",
"................##......",
"................#......."};
